<svg width="70" height="70" viewBox="0 0 70 70" fill="none" xmlns="http://www.w3.org/2000/svg">
<rect width="70" height="70" rx="35" fill="#948289"/>
<path d="M23.3953 49.0075C31.2612 30.0335 37.2364 31.4547 46.9738 49.0075C46.9925 51.2325 46.7418 52.3166 43.4807 52.5C43.4807 52.5 39.3958 50.1498 36.4945 49.8806C32.6227 49.5215 26.8884 52.5 26.8884 52.5C23.9452 52.3916 23.2374 51.6148 23.3953 49.0075Z" fill="#948289"/>
<path d="M51.3402 28.9257C48.978 27.4 47.2577 28.7265 45.2273 30.6719C42.9572 32.847 41.3514 35.3438 43.4807 37.6569C45.5721 39.9287 48.2048 39.7589 50.467 37.6569C52.9775 35.3241 54.2192 30.785 51.3402 28.9257Z" fill="#948289"/>
<path d="M41.7342 17.5751C38.8694 17.1659 37.3666 20.0551 36.4945 22.8138C35.5469 25.8113 35.2582 29.6778 38.241 30.6719C41.2239 31.666 43.4856 28.4546 44.354 25.4332C45.2475 22.3242 44.937 18.0326 41.7342 17.5751Z" fill="#948289"/>
<path d="M27.7617 17.5751C24.9106 18.1766 24.8527 21.6611 25.1418 24.5601C25.4802 27.953 27.0014 31.9985 30.3815 31.5451C33.9104 31.0717 34.0828 26.2056 33.0014 22.8138C32.1225 20.0572 30.5931 16.9777 27.7617 17.5751Z" fill="#948289"/>
<path d="M19.0289 28.9257C16.3031 30.3772 16.6518 34.0869 18.1556 36.7838C19.4944 39.1849 21.6637 41.1564 24.2685 40.2763C27.2473 39.2699 27.3999 35.2405 26.0151 32.4182C24.6717 29.6801 21.7211 27.492 19.0289 28.9257Z" fill="#948289"/>
<path d="M23.3953 49.0075C31.2612 30.0335 37.2364 31.4547 46.9738 49.0075C46.9925 51.2325 46.7418 52.3166 43.4807 52.5C43.4807 52.5 39.3958 50.1498 36.4945 49.8806C32.6227 49.5215 26.8884 52.5 26.8884 52.5C23.9452 52.3916 23.2374 51.6148 23.3953 49.0075Z" stroke="#EFE3DD" stroke-linecap="round"/>
<path d="M51.3402 28.9257C48.978 27.4 47.2577 28.7265 45.2273 30.6719C42.9572 32.847 41.3514 35.3438 43.4807 37.6569C45.5721 39.9287 48.2048 39.7589 50.467 37.6569C52.9775 35.3241 54.2192 30.785 51.3402 28.9257Z" stroke="#EFE3DD" stroke-linecap="round"/>
<path d="M41.7342 17.5751C38.8694 17.1659 37.3666 20.0551 36.4945 22.8138C35.5469 25.8113 35.2582 29.6778 38.241 30.6719C41.2239 31.666 43.4856 28.4546 44.354 25.4332C45.2475 22.3242 44.937 18.0326 41.7342 17.5751Z" stroke="#EFE3DD" stroke-linecap="round"/>
<path d="M27.7617 17.5751C24.9106 18.1766 24.8527 21.6611 25.1418 24.5601C25.4802 27.953 27.0014 31.9985 30.3815 31.5451C33.9104 31.0717 34.0828 26.2056 33.0014 22.8138C32.1225 20.0572 30.5931 16.9777 27.7617 17.5751Z" stroke="#EFE3DD" stroke-linecap="round"/>
<path d="M19.0289 28.9257C16.3031 30.3772 16.6518 34.0869 18.1556 36.7838C19.4944 39.1849 21.6637 41.1564 24.2685 40.2763C27.2473 39.2699 27.3999 35.2405 26.0151 32.4182C24.6717 29.6801 21.7211 27.492 19.0289 28.9257Z" stroke="#EFE3DD" stroke-linecap="round"/>
</svg>
