<svg width="140" height="132" viewBox="0 0 140 132" fill="none" xmlns="http://www.w3.org/2000/svg">
<g filter="url(#filter0_f_200_2)">
<path d="M116.741 19.3847C104.325 8.12682 85.8607 10.1518 74.4649 22.6632L70.0017 27.5568L65.5385 22.6632C54.1653 10.1518 35.6781 8.12682 23.2627 19.3847C9.03487 32.3058 8.28723 55.4965 21.0198 69.5025L64.8588 117.668C67.6908 120.777 72.2899 120.777 75.1219 117.668L118.961 69.5025C131.716 55.4965 130.968 32.3058 116.741 19.3847Z" fill="#F6C1CC"/>
</g>
<path d="M62.7017 90.0495C62.9394 86.5298 63.5927 84.9949 65.8947 83.2178C67.6761 84.1885 68.6748 84.5172 70.4561 83.2178C72.2028 84.6188 72.7966 85.4144 72.7368 86.8613C73.4721 90.4822 72.9192 92.3287 71.3684 95.5148C69.8177 98.7009 68.6733 99.7911 65.8947 100.98C62.9476 102.241 60.6964 102.078 57.6842 100.98C54.5986 99.856 51.2982 95.5148 51.2982 95.5148L50.386 92.3267M50.386 92.3267H52.2105L53.1228 91.4158C53.1228 91.4158 53.1901 94.1087 54.0351 95.5148C54.88 96.9209 55.7269 97.5823 57.2281 98.2475C58.8644 98.9726 60.0059 98.8574 61.7895 98.7029C64.0343 98.5084 67.2632 95.9703 67.2632 95.9703M50.386 92.3267L47.6491 93.693C47.6491 93.693 46.312 84.2559 48.1053 78.6633C50.2018 72.1247 53.2824 68.9015 58.5965 64.5446M67.2632 95.9703C67.2632 95.9703 68.8995 95.0812 69.5439 93.693C70.8195 90.945 70 85.9505 70 85.9505M67.2632 95.9703L61.3333 97.3366L57.2281 95.5148M57.2281 95.5148L54.9474 92.3267M57.2281 95.5148L60.8772 96.4257C60.8772 96.4257 60.8772 95.5929 60.8772 95.0594M60.8772 95.0594C62.2302 95.506 63.1733 95.506 64.5263 95.0594C68.0579 93.8937 67.2632 85.9505 67.2632 85.9505M60.8772 95.0594C58.3313 94.0984 57.543 92.992 57.2281 90.0495M62.7017 93.693C58.4718 88.1804 61.8361 81.395 66.807 78.6633C71.7779 75.9317 69.8296 84.2084 71.3684 81.8515M74.1053 81.8515L75.4737 91.4158L70.9123 99.6139C71.0719 102.272 55.7111 103.8 59.9649 103.713C61.0482 103.691 62.7017 104.168 62.7017 104.168L63.614 105.535C63.614 105.535 69.8109 103.679 72.7368 100.98C75.9017 98.0611 77.4022 95.6413 78.2105 91.4158C78.813 88.2663 77.7544 83.2178 77.7544 83.2178M66.807 105.079L65.4386 107.356C65.1425 106.761 71.2316 105.059 74.5614 103.257C78.8365 100.945 79.511 97.0817 80.4912 92.3267C81.318 88.3161 80.0351 81.8515 80.0351 81.8515M68.6316 106.446L70.9123 108.267L68.6316 109.178C71.3352 108.537 72.6606 107.793 74.5614 105.535C74.5614 105.535 79.5555 101.994 81.4035 98.7029C83.1151 95.6549 83.6842 90.0495 83.6842 90.0495C83.6828 89.7354 83.68 89.4323 83.6749 89.1386M70.4561 71.8317C70.4561 71.8317 73.0442 72.1149 74.5614 72.7426C78.1706 74.2358 81.4035 80.0297 81.4035 80.0297C83.2589 83.5993 83.6162 85.7484 83.6749 89.1386M70.9123 110.545C70.9123 110.545 75.2332 108.362 78.6593 105.535M81.4035 102.802C84.8909 98.3104 86.4211 89.1386 86.4211 89.1386M81.4035 102.802L86.4211 89.1386M81.4035 102.802C80.6722 103.744 79.7076 104.669 78.6593 105.535M86.4211 89.1386H83.6749M86.4211 89.1386C86.7743 83.8556 85.9944 80.9558 82.3158 75.9307C82.3158 75.9307 73.9458 66.1307 67.7193 69.5545C66.9237 69.992 66.3725 71.6539 67.2632 71.8317C67.4378 71.8666 67.7193 71.8317 67.7193 71.8317M75.9298 110.545C75.3954 110.722 74.5614 111 74.5614 111M77.7544 109.634L80.0351 107.356M80.0351 107.356L78.6593 105.535M80.0351 107.356C80.0351 107.356 83.7431 102.579 85.5088 99.1584M85.5088 99.1584C87.7544 94.8087 89.6354 92.2105 89.614 87.3169C89.5887 81.5016 87.603 77.9556 83.6842 73.6535C79.6091 69.1798 75.8694 64.8749 70 66.3664C67.6017 66.9758 64.5263 69.5545 64.5263 69.5545C64.5263 69.5545 59.5082 73.5229 57.2281 76.8416C55.0181 80.0583 53.1228 85.9505 53.1228 85.9505L52.2105 90.0495L54.0351 88.6832L54.9474 89.5941L56.3158 84.1288L59.9649 76.8416L64.5263 73.1981L70 73.6535M85.5088 99.1584L87.3333 100.525L85.5088 103.713C85.5088 103.713 90.8741 95.8374 91.4386 90.0495C92.0041 84.2507 91.1931 80.5035 88.2456 75.4753C85.249 70.3634 82.564 67.0183 76.8421 65.4555C71.4468 63.9819 67.5868 65.0123 62.7017 67.7327C57.6224 70.5614 55.3493 73.7541 53.1228 79.1189M53.1228 79.1189C51.9319 81.9885 51.2982 86.8613 51.2982 86.8613H49.9298V91.4158L51.2982 90.9604M53.1228 79.1189L50.386 78.6633C50.386 78.6633 58.239 64.0336 67.2632 62.2674M67.2632 62.2674C72.5538 61.2319 76.087 61.7596 80.9474 64.0891C86.9754 66.9784 89.6695 70.7256 92.3509 76.8416C94.3124 81.3157 95.1053 84.2777 94.6316 89.1386C94.2497 93.0572 91.4386 98.7029 91.4386 98.7029L89.614 97.3366M67.2632 62.2674L67.7193 59.0793C67.7193 59.0793 61.8074 61.912 58.5965 64.5446M58.5965 64.5446L56.3158 62.2674C56.3158 62.2674 61.7294 57.9019 65.8947 56.802M65.8947 56.802C70.0279 55.7106 72.6631 55.9015 76.8421 56.802C81.05 57.7088 83.4134 58.8042 86.8772 61.3565C90.329 63.8999 92.0262 65.8473 94.1754 69.5545C96.6885 73.8892 97.8245 81.8515 97.8245 81.8515M65.8947 56.802C65.8947 56.802 65.9228 55.4137 65.8947 54.5248C65.7295 49.2854 52.6507 65.5062 52.2105 64.5446C51.7703 63.583 46.2807 74.5643 46.2807 74.5643L44.4561 86.4059V89.5941L42.1754 89.1386C42.1754 89.1386 42.0752 80.9046 43.5438 75.9307C45.0759 70.742 46.6881 67.9679 49.9298 63.6337C52.7938 59.8044 54.5389 57.5152 58.5965 54.9802C63.0378 52.2055 66.1433 51.2634 71.3684 50.8812C74.5947 50.6453 78.378 51.7331 80.9474 52.352M95.5438 63.6337L89.614 56.802C89.614 56.802 85.034 52.2475 83.6749 52.703C83.2207 52.8552 82.2369 52.6627 80.9474 52.352M69.5439 59.0793C69.5439 59.0793 78.7886 59.4199 83.6749 62.2674C91.2761 66.6969 93.7275 72.7975 95.5438 81.396C96.6467 86.617 95.5438 95.0594 95.5438 95.0594M72.7368 75.9307C75.5417 77.7498 76.1944 79.1471 76.8421 81.8515M75.9298 75.9307C76.3151 77.7088 76.734 78.4204 78.2105 78.6633M57.6842 87.3169C63.5198 73.4621 66.821 73.2887 72.7368 80.0297M44.4561 91.4158C44.4561 91.4158 45.3684 92.3267 46.2807 91.8712M67.2632 53.6139C67.2632 53.6139 81.3757 54.1353 88.2456 59.0793C94.5794 63.6374 97.908 67.876 99.6491 75.4753C100.841 80.6797 99.193 89.1385 99.193 89.1385L102.386 82.7623C102.386 82.7623 99.0888 72.8909 97.8245 66.3664C97.4129 64.242 98.5513 59.6608 96.9123 60.901C95.2733 62.1412 84.5013 44.3467 82.3158 49.0594C82.1875 49.3361 82.0497 49.6495 81.9128 49.9703M80.9474 52.352C80.9474 52.352 81.4247 51.1143 81.9128 49.9703M102.386 85.0395C102.054 84.0541 104.73 86.7669 105.123 84.1288C105.515 81.4907 104.613 77.7891 103.298 73.6535M39.4386 86.8613C41.0853 76.6674 39.6172 71.0916 49.0175 60.4455C54.5018 54.7545 57.8848 51.9769 65.4386 49.0594C71.9015 47.3672 75.5039 47.8709 81.9128 49.9703M37.1579 84.1288C39.4522 70.8536 41.2187 63.6924 51.2982 54.9802C57.012 49.7703 60.8195 47.7772 68.6316 45.8713C76.5364 44.8705 81.1324 45.806 89.614 49.9703C96.3755 55.0712 98.5024 59.3652 101.474 67.7327M34.8772 81.8515C35.783 74.6657 37.1136 70.9701 39.8947 64.5444C43.5479 58.8338 45.8422 56.152 50.386 52.352C54.9454 46.6447 58.1141 46.1137 63.614 44.5049C68.7892 45.2531 71.4383 44.787 75.9298 43.1385C81.0415 42.1993 83.8045 43.4893 88.7017 46.3267C92.977 50.4175 95.3739 52.7111 99.6491 56.802M100.561 58.1682C102.939 62.0388 103.851 64.6159 105.123 69.5545L103.298 70.4652L106.035 71.8317C107.429 75.7067 107.446 77.776 106.947 81.396M108.772 79.1189C107.869 69.2285 106.206 62.8211 100.372 54.9802M59.5088 44.0494C64.3252 41.2541 67.1603 40.2146 72.7368 40.4059C81.6856 41.0424 86.3469 42.7639 94.1754 47.693C96.6455 50.3216 98.6834 52.7109 100.372 54.9802M58.5965 44.5049C50.6667 50.7508 43.6954 50.361 39.4386 62.2674M32.5965 80.0297C31.8777 77.5957 32.5109 76.7728 33.9649 75.4753M33.9649 73.1981C36.2673 64.12 36.7851 59.0273 44.4561 49.9703C54.1768 42.3273 60.6713 40.2832 72.7368 37.6732M74.5614 37.6732C81.9792 38.8548 86.087 39.2039 94.1754 44.5049L102.386 52.352C102.111 53.951 101.776 54.645 100.372 54.9802M103.298 53.6139C107.186 60.5628 108.876 65.0413 110.596 74.5643M30.3158 77.2969C32.081 66.3846 34.1468 60.7419 40.3509 51.792C46.3799 45.2959 49.8729 41.7914 58.5965 38.5841L71.3684 35.396M28.4912 74.5643C29.8182 66.2591 31.373 62.1831 34.8772 55.4356M34.8772 55.4356L32.5965 53.6139C29.4158 60.7642 28.1703 64.7544 27.1228 71.8317M34.8772 55.4356C37.6797 50.1149 40.4095 46.9618 44.2781 44.0494M70.4561 32.2079L51.2982 39.495C48.549 41.1234 46.2636 42.5547 44.2781 44.0494M33.9649 52.352C36.2744 47.859 38.2056 45.5239 43.0877 41.7722L44.2781 44.0494M44.4561 40.4059C53.5368 34.5225 59.0364 32.1443 69.5439 29.4752M24.8421 68.6435L25.2982 66.8217L23.0175 65.4555C26.3736 54.3063 29.0204 48.6636 34.8772 39.495M25.2982 64.5446C33.0107 41.8711 37.622 39.373 48.1053 32.2079M49.0175 30.8416C51.1976 28.5405 52.7871 27.8404 56.3158 27.6534L58.1403 29.9307M58.1403 29.9307L52.2105 33.5742C46.1476 36.2554 43.9 38.1772 40.3509 41.7722M58.1403 29.9307L66.807 27.6534L59.5088 29.4752M57.6842 27.198C59.9999 26.3087 61.2983 25.8101 63.614 24.9208M61.7895 23.5544C53.3019 25.9957 48.4873 27.3011 42.1754 32.2079C41.1066 33.4529 40.5074 34.151 39.4386 35.396M37.1579 36.7623C37.1579 37.4738 37.1579 38.5841 37.1579 38.5841M59.5088 21.2772C58.3682 21.5382 57.3095 21.8001 56.3158 22.0705M21.6491 61.8118C22.8482 55.0691 24.2296 51.5733 28.0351 45.8713C32.5576 38.8001 35.5897 35.4884 41.2632 29.9307C46.4728 25.7635 50.1378 23.752 56.3158 22.0705M56.3158 22.0705C55.9896 20.5667 55.6422 19.8414 53.1228 19.9109C46.0158 23.6184 42.5503 25.936 36.7018 30.8416C32.5578 34.4802 30.8388 37.0215 28.0351 41.7722C26.4653 44.1437 25.2379 46.1201 24.1703 48.1485M20.2807 57.7128C21.5852 53.7038 22.733 50.8791 24.1703 48.1485M24.1703 48.1485L21.6491 46.7821M21.6491 46.7821L18.9123 54.5248M21.6491 46.7821L27.1228 37.6732C34.1562 28.3966 38.8699 24.2045 49.0175 19M18 50.8812C24.8075 33.9859 30.8919 27.2368 44.9123 19M20.2807 44.0494C19.0529 44.7416 18.6077 44.6308 18 44.0494C19.3698 41.4797 20.6895 39.238 22.0296 37.2178M39.4386 19.9109C35.7411 22.7161 32.7151 25.1523 30.0728 27.6534M22.0296 37.2178L20.2807 35.396L18.9123 36.7623C21.3587 31.1493 22.9734 28.2437 28.9474 26.1353M22.0296 37.2178C24.4949 33.5014 27.0293 30.5343 30.0728 27.6534M33.9649 20.8218C31.3289 22.4666 29.854 23.3905 28.9474 26.1353M28.9474 26.1353L30.0728 27.6534M112.877 72.287L106.947 55.891C107.134 54.3987 107.251 53.5863 108.772 54.9802L114.246 69.5545V65.4555C115.528 65.9916 116.185 66.1225 116.526 64.0891C110.543 50.8257 105.942 44.9528 95.5438 37.2178C92.5133 34.6962 89.927 32.9276 87.3333 31.7227M73.6491 29.4752C79.3272 29.3483 83.3389 29.8669 87.3333 31.7227M106.035 54.5248C96.2048 40.8819 88.8547 37.0215 73.193 35.396M74.5614 35.396C73.253 34.5197 72.8869 33.9377 73.193 32.6633C88.73 33.3291 96.3039 37.7612 107.86 52.703M118.807 62.7227C118.094 62.7227 117.695 62.7227 116.982 62.7227M119.263 59.0793L116.526 61.3565M116.526 61.3565C113.791 52.0873 111.558 47.1187 102.386 39.9505C97.358 34.6384 94.3088 32.4205 88.7017 29.0198M116.526 61.3565C114.076 58.4069 119.503 59.6934 118.807 56.3465M88.7017 29.0198C83.2529 27.3048 80.4485 26.8063 76.386 27.6534M88.7017 29.0198L87.3333 31.7227M118.807 56.3465C118.111 52.9995 109.71 43.3674 102.842 37.2178M118.807 56.3465C119.75 56.8293 120.092 56.4705 120.175 54.0692C117.749 50.2121 115.401 46.9131 112.98 44.0494M79.1228 24.9208C80.2185 25.2273 81.2822 25.5345 82.3158 25.8438M82.3158 25.8438C84.1946 25.0555 84.3063 24.4152 83.6749 23.099M82.3158 25.8438C86.7807 27.1801 90.6832 28.5566 94.1754 30.0965M83.6749 23.099H80.9474M83.6749 23.099C88.5316 24.0227 91.1073 25.1081 95.5438 27.6534M95.5438 27.6534C94.2135 28.4766 93.941 29.0163 94.1754 30.0965M95.5438 27.6534C101.806 30.5639 105.584 33.2601 109.462 36.7623M94.1754 30.0965C101.902 33.5033 107.62 37.7098 112.98 44.0494M115.614 42.6831C115.015 44.0695 114.552 44.5955 112.98 44.0494M115.614 42.6831L120.632 49.9703M115.614 42.6831C113.329 40.4292 111.384 38.4969 109.462 36.7623M84.5965 21.2772C85.3752 21.5103 86.1351 21.7443 86.8772 21.9799M122 47.693C119.301 44.0476 116.786 40.9281 114.246 38.2127M111.444 35.396L109.462 36.7623M111.444 35.396C105.926 30.2006 99.9394 26.6394 91.4386 23.5311M111.444 35.396C112.388 36.2851 113.319 37.222 114.246 38.2127M89.614 19.4554C90.2364 19.7208 90.8444 19.9836 91.4386 20.2442M120.632 42.2277C116.298 36.6708 112.478 32.61 107.53 29.0198M91.4386 20.2442L86.8772 21.9799M91.4386 20.2442C91.7463 20.3792 92.0504 20.5135 92.3509 20.6474M86.8772 21.9799C88.4769 22.4877 89.9941 23.0029 91.4386 23.5311M92.3509 20.6474L91.4386 23.5311M92.3509 20.6474C93.4628 21.1427 94.5256 21.6308 95.5438 22.1145M116.07 37.2178L114.246 38.2127M95.5438 22.1145L93.7193 19.4554C98.3197 21.2046 101.98 22.8758 105.123 24.681M95.5438 22.1145C100.378 24.411 104.208 26.6093 107.53 29.0198M116.526 36.7623L120.632 38.2127C120.167 37.6815 119.712 37.1661 119.263 36.6654M109.69 27.6534L107.53 29.0198M109.69 27.6534C113.068 30.1437 115.988 33.012 119.263 36.6654M109.69 27.6534C108.269 26.6058 106.766 25.6251 105.123 24.681M101.018 20.2442C103.278 21.1052 105.216 21.9211 106.947 22.7961M119.263 36.6654L118.351 32.6633C114.569 27.7515 111.456 25.0738 106.947 22.7961M106.947 22.7961L105.123 24.681" stroke="white" stroke-linecap="round"/>
<defs>
<filter id="filter0_f_200_2" x="0" y="0" width="140" height="132" filterUnits="userSpaceOnUse" color-interpolation-filters="sRGB">
<feFlood flood-opacity="0" result="BackgroundImageFix"/>
<feBlend mode="normal" in="SourceGraphic" in2="BackgroundImageFix" result="shape"/>
<feGaussianBlur stdDeviation="6" result="effect1_foregroundBlur_200_2"/>
</filter>
</defs>
</svg>
