<svg width="70" height="70" viewBox="0 0 70 70" fill="none" xmlns="http://www.w3.org/2000/svg">
<rect width="70" height="70" rx="35" fill="white"/>
<path d="M40.5771 23.3778C38.9822 19.9411 36.8644 18.2869 33.4303 18.0112C29.6104 17.7044 25.0923 23.825 25.0923 23.825C25.0923 23.825 18.3774 21.8203 15.1662 24.2723C11.8292 26.8202 10.4541 30.5422 11.1957 35.0056C11.8062 38.6795 16.3573 42.6083 16.3573 42.6083L32.2391 52L36.4081 43.0556M40.5771 23.3778C42.2292 26.9377 40.5771 34.1111 40.5771 34.1111L36.4081 43.0556M40.5771 23.3778C40.5771 23.3778 42.2368 22.7685 43.3564 22.9306C45.3259 23.2156 46.5328 27.4028 46.5328 27.4028C46.5328 27.4028 50.2028 25.9109 52.4885 26.5083C54.8767 27.1326 56.3815 28.1703 57.6501 30.5333C59.2546 33.5224 59.6353 35.0056 57.6501 39.4778C55.6648 43.95 40.5771 51.1055 40.5771 51.1055L36.4081 43.0556M30.2539 47.0805C30.2539 47.0805 17.1514 40.8194 15.9603 38.1361C14.7691 35.4528 14.7691 34.1111 14.7691 34.1111M14.7691 32.3222C14.3721 31.4278 14.7691 31.2319 14.7691 30.5333M41.7682 48.4222C48.6779 45.0338 50.2349 43.5481 54.0766 38.1361" stroke="#C09D9B" stroke-linecap="round"/>
</svg>
