<svg width="70" height="70" viewBox="0 0 70 70" fill="none" xmlns="http://www.w3.org/2000/svg">
<rect width="70" height="70" rx="35" fill="#8F7E81"/>
<path d="M48.9355 48H16.3514C14.933 47.824 14.3725 47.4409 14 45.9778V24.0222C14.1634 23.3461 14.3639 22.8887 14.7036 22.5778M55.9898 25.7556V24.0222C56.0362 23.2976 55.9243 22.8644 55.6539 22.5778M55.9898 27.7778V45.9778M55.9898 45.9778C55.9756 47.3102 55.5522 47.7035 54.3102 48H50.951M55.9898 45.9778L41.8812 34.4222M17.3592 44.8222L28.1086 34.4222M28.1086 34.4222L35.1629 40.7778L41.8812 34.4222M28.1086 34.4222C28.1086 34.4222 27.562 32.5589 28.1086 31.5333C28.8212 30.1961 30.0949 29.4464 31.8037 29.5111C33.4034 29.5717 35.1629 31.5333 35.1629 31.5333C35.1629 31.5333 36.9207 29.5111 38.5221 29.5111C40.1234 29.5111 41.2161 30.2806 41.8812 31.5333C42.4261 32.5596 41.8812 34.4222 41.8812 34.4222M28.1086 34.4222L14.7036 22.5778M41.8812 34.4222L55.6539 22.5778M14.7036 22.5778C15.0602 22.2514 15.5701 22.0866 16.3514 22H54.3102C54.9272 22.1425 55.375 22.2821 55.6539 22.5778" stroke="#EFE3DD" stroke-linecap="round"/>
</svg>
